<svg width="430" height="301" viewBox="0 0 430 301" fill="none" xmlns="http://www.w3.org/2000/svg">
<path opacity="0.46" d="M220.287 300.776C320.255 300.776 401.295 293.192 401.295 283.836C401.295 274.48 320.255 266.896 220.287 266.896C120.319 266.896 39.2791 274.48 39.2791 283.836C39.2791 293.192 120.319 300.776 220.287 300.776Z" fill="#CACACA"/>
<path d="M429.839 0L294.054 38.228L326.881 71.452C290.471 108.475 244.945 154.961 243.731 157.157C241.701 160.83 206.37 88.601 206.37 88.601L110.979 194.006L76.153 147.936L0 233.032L71.096 184.601L109.511 234.696L195.257 147.594L231.817 222.316L359.287 104.249L394.57 139.958L429.839 0Z" fill="#D03240"/>
<path d="M233.159 222.519L361.78 106.803L354.468 98.043L233.159 222.519Z" fill="#F97C08"/>
<path d="M109.512 234.697L200.15 157.402L195.308 147.609L109.512 234.697Z" fill="#F97C08"/>
<path d="M71.097 184.601L0 233.033L75.899 190.864L71.097 184.601Z" fill="#F97C08"/>
<path d="M297.213 151.005C281.27 123.617 238.66 135.871 238.503 135.916C226.24 151.625 210.192 175.961 202.753 203.379C189.851 250.933 205.702 274.895 205.702 274.895C205.702 274.895 214.549 293.327 266.159 288.166C283.763 286.406 299.772 287.03 313.289 286.74C336.171 240.145 313.185 178.444 297.213 151.005Z" fill="#F97C08"/>
<path d="M357.213 250.564C358.319 208.908 319.934 135.805 292.701 117.485H254.479C254.479 117.485 247.509 124.378 238.503 135.915C238.66 135.87 281.27 123.616 297.213 151.004C313.186 178.443 336.171 240.144 313.29 286.738C339.529 286.176 356.374 282.166 357.213 250.564Z" fill="#F97C08"/>
<path d="M254.479 117.486C254.479 117.486 222.469 70.57 244.991 71.346C267.513 72.123 263.343 80.277 277.466 78.724C291.588 77.171 294.307 67.075 310.616 73.288C326.925 79.501 289.259 121.827 289.259 121.827L254.479 117.486Z" fill="#F97C08"/>
<path d="M288.035 180.938C291.04 180.938 293.499 178.479 293.499 175.474C293.499 172.469 291.04 170.01 288.035 170.01H257.163H244.761C241.756 170.01 239.297 172.469 239.297 175.474C239.297 178.479 241.756 180.938 244.761 180.938H257.164C262.464 180.938 266.999 184.053 269.075 188.588H244.815C241.81 188.588 239.351 191.047 239.351 194.052C239.351 197.057 241.81 199.516 244.815 199.516H269.075C266.999 203.997 262.464 207.166 257.164 207.166H244.761C242.521 207.166 240.499 208.532 239.679 210.608C238.859 212.684 239.351 215.088 240.99 216.618L271.916 245.85C272.954 246.833 274.32 247.325 275.686 247.325C277.161 247.325 278.582 246.724 279.675 245.631C281.751 243.445 281.642 240.003 279.456 237.927L258.474 218.093C269.238 217.492 278.144 209.788 280.548 199.57H288.034C291.039 199.57 293.498 197.111 293.498 194.106C293.498 191.101 291.039 188.642 288.034 188.642H280.548C279.892 185.91 278.799 183.287 277.27 180.992H288.034V180.938H288.035Z" fill="#E9F4F9"/>
<path d="M273.848 287.542C273.848 287.542 241.088 287.542 232.577 269.641C232.577 269.641 230.981 283.727 243.946 288.98C243.946 288.98 266.97 289.652 273.848 287.542Z" fill="#F97C08"/>
<path d="M285.718 106.777C285.718 106.777 296.449 90.624 299.338 71.286C299.338 71.286 321.472 69.23 313.29 86.253C313.29 86.253 309.756 97.454 296.13 113.563L285.718 106.777Z" fill="#F97C08"/>
<path d="M254.793 119.25C253.595 119.271 252.413 118.698 251.71 117.624C250.621 115.964 251.074 113.739 252.731 112.643C253.48 112.147 271.4 100.591 296.318 109.482C298.193 110.151 299.171 112.213 298.502 114.089C297.834 115.963 295.775 116.942 293.895 116.273C272.496 108.641 257.331 118.254 256.696 118.666C256.107 119.048 255.448 119.238 254.793 119.25Z" fill="#18186B"/>
<path d="M301.172 125.095C300.777 125.095 300.376 125.03 299.982 124.892C268.57 113.908 248.446 124.545 248.248 124.655C246.503 125.607 244.311 124.963 243.357 123.213C242.404 121.464 243.05 119.275 244.799 118.322C245.73 117.815 267.966 106.062 302.362 118.085C304.242 118.742 305.233 120.799 304.576 122.679C304.057 124.165 302.662 125.095 301.172 125.095Z" fill="#F97C08"/>
<path d="M279.601 151.308C279.132 151.308 278.656 151.216 278.197 151.022C276.364 150.246 275.506 148.13 276.282 146.296C285.495 124.529 277.595 120.22 277.513 120.179C277.589 120.216 277.135 119.948 277.135 119.948L280.375 113.562C280.78 113.729 284.398 115.339 286.486 120.415C289.291 127.238 288.093 136.892 282.923 149.106C282.34 150.482 281.005 151.308 279.601 151.308Z" fill="#F97C08"/>
<path d="M310.166 161.579C308.194 161.845 306.38 160.463 306.112 158.493C306.103 158.427 305.167 151.829 301.79 144.277C297.41 134.479 291.184 127.742 283.286 124.252C281.465 123.447 280.641 121.318 281.445 119.496C282.25 117.675 284.377 116.852 286.201 117.655C308.99 127.725 313.094 156.311 313.257 157.523C313.523 159.498 312.139 161.313 310.166 161.579Z" fill="#F97C08"/>
<path fill-rule="evenodd" clip-rule="evenodd" d="M75.854 266.818C75.854 266.818 132.177 263.61 188.5 266.818H75.854Z" fill="#F1E28E"/>
<path d="M75.8538 266.818V281.837H188.5V266.818H75.8538Z" fill="#CA9A27"/>
<mask id="mask0_20_8" style="mask-type:luminance" maskUnits="userSpaceOnUse" x="75" y="266" width="114" height="16">
<path d="M75.8538 266.818V281.837H188.5V266.818H75.8538Z" fill="white"/>
</mask>
<g mask="url(#mask0_20_8)">
<path d="M80.9229 286.559V264.464" stroke="#ECD757" stroke-width="1.8694" stroke-miterlimit="10"/>
<path d="M89.533 286.128V264.033" stroke="#ECD757" stroke-width="1.8694" stroke-miterlimit="10"/>
<path d="M98.1428 285.698V263.603" stroke="#ECD757" stroke-width="1.8694" stroke-miterlimit="10"/>
<path d="M106.753 284.763V262.668" stroke="#ECD757" stroke-width="1.8694" stroke-miterlimit="10"/>
<path d="M115.363 285.479V263.384" stroke="#ECD757" stroke-width="1.8694" stroke-miterlimit="10"/>
<path d="M123.973 285.479V263.384" stroke="#ECD757" stroke-width="1.8694" stroke-miterlimit="10"/>
<path d="M132.583 286.598V264.503" stroke="#ECD757" stroke-width="1.8694" stroke-miterlimit="10"/>
<path d="M141.193 285.479V263.384" stroke="#ECD757" stroke-width="1.8694" stroke-miterlimit="10"/>
<path d="M167.023 286.474V264.379" stroke="#ECD757" stroke-width="1.8694" stroke-miterlimit="10"/>
<path d="M149.803 285.479V263.384" stroke="#ECD757" stroke-width="1.8694" stroke-miterlimit="10"/>
<path d="M175.633 285.455V263.36" stroke="#ECD757" stroke-width="1.8694" stroke-miterlimit="10"/>
<path d="M158.413 285.899V263.804" stroke="#ECD757" stroke-width="1.8694" stroke-miterlimit="10"/>
<path d="M184.243 285.172V263.078" stroke="#ECD757" stroke-width="1.8694" stroke-miterlimit="10"/>
</g>
<path fill-rule="evenodd" clip-rule="evenodd" d="M71.0159 249.405C71.0159 249.405 127.339 246.197 183.662 249.405H71.0159Z" fill="#F1E28E"/>
<path d="M71.0159 249.405V264.424H183.662V249.405H71.0159Z" fill="#CA9A27"/>
<mask id="mask1_20_8" style="mask-type:luminance" maskUnits="userSpaceOnUse" x="71" y="249" width="113" height="16">
<path d="M71.0159 249.405V264.424H183.662V249.405H71.0159Z" fill="white"/>
</mask>
<g mask="url(#mask1_20_8)">
<path d="M76.085 269.146V247.051" stroke="#ECD757" stroke-width="1.8694" stroke-miterlimit="10"/>
<path d="M84.6951 268.715V246.621" stroke="#ECD757" stroke-width="1.8694" stroke-miterlimit="10"/>
<path d="M93.304 268.285V246.19" stroke="#ECD757" stroke-width="1.8694" stroke-miterlimit="10"/>
<path d="M101.914 267.351V245.256" stroke="#ECD757" stroke-width="1.8694" stroke-miterlimit="10"/>
<path d="M110.524 268.066V245.971" stroke="#ECD757" stroke-width="1.8694" stroke-miterlimit="10"/>
<path d="M119.134 268.066V245.971" stroke="#ECD757" stroke-width="1.8694" stroke-miterlimit="10"/>
<path d="M127.744 269.185V247.09" stroke="#ECD757" stroke-width="1.8694" stroke-miterlimit="10"/>
<path d="M136.354 268.066V245.971" stroke="#ECD757" stroke-width="1.8694" stroke-miterlimit="10"/>
<path d="M162.184 269.061V246.966" stroke="#ECD757" stroke-width="1.8694" stroke-miterlimit="10"/>
<path d="M144.964 268.066V245.971" stroke="#ECD757" stroke-width="1.8694" stroke-miterlimit="10"/>
<path d="M170.794 268.042V245.947" stroke="#ECD757" stroke-width="1.8694" stroke-miterlimit="10"/>
<path d="M153.574 268.486V246.391" stroke="#ECD757" stroke-width="1.8694" stroke-miterlimit="10"/>
<path d="M179.404 267.76V245.665" stroke="#ECD757" stroke-width="1.8694" stroke-miterlimit="10"/>
</g>
<path d="M169.746 287.748C198.138 287.748 221.154 264.732 221.154 236.34C221.154 207.948 198.138 184.932 169.746 184.932C141.354 184.932 118.338 207.948 118.338 236.34C118.338 264.732 141.354 287.748 169.746 287.748Z" fill="#CA9A27"/>
<path d="M167.519 287.748C195.911 287.748 218.927 264.732 218.927 236.34C218.927 207.948 195.911 184.932 167.519 184.932C139.127 184.932 116.111 207.948 116.111 236.34C116.111 264.732 139.127 287.748 167.519 287.748Z" fill="#ECD757"/>
<path d="M167.519 287.748C195.911 287.748 218.927 264.732 218.927 236.34C218.927 207.948 195.911 184.932 167.519 184.932C139.127 184.932 116.111 207.948 116.111 236.34C116.111 264.732 139.127 287.748 167.519 287.748Z" fill="#ECD757"/>
<path d="M167.519 277.792C190.412 277.792 208.971 259.233 208.971 236.34C208.971 213.447 190.412 194.888 167.519 194.888C144.626 194.888 126.067 213.447 126.067 236.34C126.067 259.233 144.626 277.792 167.519 277.792Z" fill="#CA9A27"/>
<path d="M167.519 194.888C167.215 194.888 166.913 194.893 166.61 194.9C189.083 195.384 207.153 213.751 207.153 236.34C207.153 258.929 189.083 277.297 166.61 277.78C166.912 277.787 167.215 277.792 167.519 277.792C190.412 277.792 208.971 259.233 208.971 236.34C208.971 213.447 190.412 194.888 167.519 194.888Z" fill="#F1E28E"/>
<path d="M128.85 236.34C128.85 213.913 146.662 195.648 168.91 194.914C168.448 194.899 167.984 194.888 167.519 194.888C144.626 194.888 126.067 213.447 126.067 236.34C126.067 259.233 144.626 277.792 167.519 277.792C167.985 277.792 168.448 277.782 168.91 277.766C146.662 277.031 128.85 258.767 128.85 236.34Z" fill="#B68D24"/>
<path fill-rule="evenodd" clip-rule="evenodd" d="M173.963 219.408C175.433 221.467 176.536 223.746 177.198 226.246H184.771L181.83 235.069H177.639C176.389 244.186 170.066 251.318 161.097 252.567L174.732 271.806H163.998L150.437 252.788V243.965H157.789C163.156 243.965 167.715 240.215 168.817 235.142H148.451L151.392 226.319H168.155C166.464 222.275 162.42 219.481 157.788 219.481H148.451L151.392 210.658H184.771L181.83 219.481H173.963V219.408Z" fill="#B68D24"/>
<path fill-rule="evenodd" clip-rule="evenodd" d="M175.921 217.58C177.391 219.639 178.494 221.918 179.156 224.418H186.729L183.788 233.241H179.597C178.347 242.358 172.024 249.49 163.054 250.739L176.689 269.978H165.955L152.394 250.96V242.137H159.746C165.113 242.137 169.672 238.387 170.774 233.314H150.408L153.349 224.491H170.112C168.421 220.447 164.377 217.653 159.745 217.653H150.408L153.349 208.83H186.728L183.787 217.653H175.92L175.921 217.58Z" fill="#ECD757"/>
</svg>
